<svg width="32" height="32" viewBox="0 0 32 32" fill="none" xmlns="http://www.w3.org/2000/svg">
  <defs>
    <linearGradient id="bgGradient" x1="0%" y1="0%" x2="100%" y2="100%">
      <stop offset="0%" style="stop-color:#4f46e5;stop-opacity:1" />
      <stop offset="50%" style="stop-color:#7c3aed;stop-opacity:1" />
      <stop offset="100%" style="stop-color:#9333ea;stop-opacity:1" />
    </linearGradient>
    <linearGradient id="penGradient" x1="0%" y1="0%" x2="100%" y2="100%">
      <stop offset="0%" style="stop-color:#f59e0b;stop-opacity:1" />
      <stop offset="100%" style="stop-color:#dc2626;stop-opacity:1" />
    </linearGradient>
  </defs>
  
  <!-- Rounded square background -->
  <rect x="2" y="2" width="28" height="28" rx="6" fill="url(#bgGradient)" />
  
  <!-- Notebook -->
  <rect x="9" y="8" width="14" height="16" rx="1.5" fill="white" fill-opacity="0.98" />
  <rect x="9" y="8" width="14" height="16" rx="1.5" stroke="white" stroke-width="1.2" stroke-opacity="0.3" />
  
  <!-- Binding/Spine -->
  <rect x="9" y="8" width="3" height="16" rx="1.5" fill="url(#bgGradient)" fill-opacity="0.4" />
  <line x1="12" y1="8" x2="12" y2="24" stroke="white" stroke-width="1" stroke-opacity="0.5" />
  
  <!-- Text lines -->
  <line x1="14" y1="12" x2="20" y2="12" stroke="url(#bgGradient)" stroke-width="1.2" stroke-linecap="round" opacity="0.7" />
  <line x1="14" y1="15" x2="20" y2="15" stroke="url(#bgGradient)" stroke-width="1.2" stroke-linecap="round" opacity="0.7" />
  <line x1="14" y1="18" x2="18" y2="18" stroke="url(#bgGradient)" stroke-width="1.2" stroke-linecap="round" opacity="0.7" />
  
  <!-- Pen/Pencil -->
  <path d="M21 5L24.5 8.5L22.5 10.5L19 7L21 5Z" fill="url(#penGradient)" />
  <path d="M21 5L24.5 8.5L22.5 10.5L19 7L21 5Z" stroke="white" stroke-width="0.5" stroke-opacity="0.6" />
</svg>
